<svg version="1.1" xmlns="http://www.w3.org/2000/svg" xmlns:xlink="http://www.w3.org/1999/xlink" x="0px" y="0px" width="520px" height="520px" viewBox="0 0 520 520" style="enable-background:new 0 0 520 520;" xml:space="preserve">
<g id="_x32_47_x2C__Bake_x2C__Cookie_x2C__Dessert_x2C__Food">
	<g>
		<g>
			<path style="fill: rgb(112, 87, 29);" d="M330.58,60.17c-7.813,20.02-27.977,33.44-50.43,31.67c-4.86,10.6-14.931,18.31-26.94,19.86
				C248.57,140.22,223.83,162,194,162c-17.57,0-33.38-7.56-44.35-19.6c-6.5,14.51-19.7,25.37-35.68,28.6c0.01,0.34,0.03,0.67,0.03,1
				c0,36.42-27.82,66.34-63.37,69.68C41.104,363.726,137.652,468,260,468c115.911,0,210-94.001,210-210
				C470,167.876,412.814,89.506,330.58,60.17z" id="id_101"></path>
			<path style="fill: rgb(204, 168, 86);" d="M422.02,124.42C416.8,140.43,401.75,152,384,152c-22.09,0-40-17.91-40-40
				c0-15.46,8.78-28.86,21.62-35.52c-11.08-6.46-22.79-11.94-35.04-16.31C323.31,78.8,305.2,92,284,92c-1.3,0-2.58-0.06-3.85-0.16
				c-4.86,10.6-14.931,18.31-26.94,19.86C248.57,140.22,223.83,162,194,162c-17.57,0-33.38-7.56-44.35-19.6
				c-6.5,14.51-19.7,25.37-35.68,28.6c0.01,0.34,0.03,0.67,0.03,1c0,36.42-27.82,66.34-63.37,69.68C50.21,247.06,50,252.51,50,258
				c0,37.85,10.02,73.35,27.54,104.02C84.59,355.79,93.85,352,104,352c22.09,0,40,17.91,40,40c0,12.32-5.57,23.33-14.33,30.67
				C165.48,451.05,210.76,468,260,468c83.64,0,155.85-48.9,189.62-119.67C440.31,343.24,434,333.36,434,322c0-16.57,13.43-30,30-30
				c1.09,0,2.16,0.06,3.22,0.17c1.82-11.12,2.78-22.53,2.78-34.17C470,207.25,451.99,160.72,422.02,124.42z" id="id_102"></path>
			<path style="fill: rgb(115, 95, 47);" d="M464,292c1.09,0,2.16,0.06,3.22,0.17c-3.239,19.79-9.239,38.65-17.6,56.16
				C440.31,343.24,434,333.36,434,322C434,305.43,447.43,292,464,292z" id="id_103"></path>
			<path style="fill: rgb(115, 95, 47);" d="M354,352c11.05,0,20,8.95,20,20s-8.95,20-20,20s-20-8.95-20-20S342.95,352,354,352z" id="id_104"></path>
			<path style="fill: rgb(115, 95, 47);" d="M249,322c8.28,0,15,6.72,15,15s-6.72,15-15,15c-8.28,0-15-6.72-15-15S240.72,322,249,322z" id="id_105"></path>
			<path style="fill: rgb(97, 77, 21);" d="M104,352c22.09,0,40,17.91,40,40c0,12.32-5.57,23.33-14.33,30.67
				c-21.01-16.66-38.76-37.24-52.13-60.65C84.59,355.79,93.85,352,104,352z" id="id_106"></path>
			<path style="fill: rgb(97, 77, 21);" d="M194,212c11.05,0,20,8.95,20,20s-8.95,20-20,20s-20-8.95-20-20S182.95,212,194,212z" id="id_107"></path>
			<path style="fill: rgb(97, 77, 21);" d="M349,212c13.81,0,25,11.19,25,25s-11.19,25-25,25s-25-11.19-25-25S335.19,212,349,212z" id="id_108"></path>
			<path style="fill: rgb(97, 77, 21);" d="M422.02,124.42C416.8,140.43,401.75,152,384,152c-22.09,0-40-17.91-40-40
				c0-15.46,8.78-28.86,21.62-35.52C387.15,89.03,406.24,105.31,422.02,124.42z" id="id_109"></path>
			<path d="M421.07,204.93c1.81,1.81,2.93,4.31,2.93,7.07c0,5.52-4.48,10-10,10c-2.76,0-5.26-1.12-7.07-2.93
				c-1.81-1.81-2.93-4.31-2.93-7.07s1.12-5.26,2.93-7.07c1.811-1.81,4.311-2.93,7.07-2.93S419.26,203.12,421.07,204.93z" id="id_110"></path>
			<path d="M391.07,294.93c1.81,1.811,2.93,4.311,2.93,7.07c0,5.52-4.48,10-10,10c-2.76,0-5.26-1.12-7.07-2.93
				c-1.81-1.811-2.93-4.311-2.93-7.07s1.12-5.26,2.93-7.07c1.811-1.81,4.311-2.93,7.07-2.93S389.26,293.12,391.07,294.93z" id="id_111"></path>
			<path d="M301.07,144.93c1.81,1.81,2.93,4.31,2.93,7.07c0,5.52-4.48,10-10,10c-2.76,0-5.26-1.12-7.07-2.93
				c-1.81-1.81-2.93-4.31-2.93-7.07s1.12-5.26,2.93-7.07c1.811-1.81,4.311-2.93,7.07-2.93S299.26,143.12,301.07,144.93z" id="id_112"></path>
			<path d="M281.07,394.93c1.81,1.811,2.93,4.311,2.93,7.07c0,5.52-4.48,10-10,10c-2.76,0-5.26-1.12-7.07-2.93
				c-1.81-1.811-2.93-4.311-2.93-7.07s1.12-5.26,2.93-7.07c1.811-1.81,4.311-2.93,7.07-2.93S279.26,393.12,281.07,394.93z" id="id_113"></path>
			<path d="M271.07,244.93c1.81,1.81,2.93,4.31,2.93,7.07c0,5.52-4.48,10-10,10c-2.76,0-5.26-1.12-7.07-2.93
				c-1.81-1.811-2.93-4.311-2.93-7.07s1.12-5.26,2.93-7.07S261.24,242,264,242S269.26,243.12,271.07,244.93z" id="id_114"></path>
			<path d="M221.07,64.93c1.81,1.81,2.93,4.31,2.93,7.07c0,5.52-4.48,10-10,10c-2.76,0-5.26-1.12-7.07-2.93S204,74.76,204,72
				s1.12-5.26,2.93-7.07S211.24,62,214,62S219.26,63.12,221.07,64.93z" id="id_115"></path>
			<path d="M191.07,364.93c1.81,1.811,2.93,4.311,2.93,7.07c0,5.52-4.48,10-10,10c-2.76,0-5.26-1.12-7.07-2.93
				c-1.81-1.811-2.93-4.311-2.93-7.07s1.12-5.26,2.93-7.07c1.81-1.81,4.31-2.93,7.07-2.93S189.26,363.12,191.07,364.93z" id="id_116"></path>
			<path d="M141.07,264.93c1.81,1.811,2.93,4.311,2.93,7.07c0,5.52-4.48,10-10,10c-2.76,0-5.26-1.12-7.07-2.93
				c-1.81-1.811-2.93-4.311-2.93-7.07s1.12-5.26,2.93-7.07c1.81-1.81,4.31-2.93,7.07-2.93S139.26,263.12,141.07,264.93z" id="id_117"></path>
			<path d="M111.07,44.93c1.81,1.81,2.93,4.31,2.93,7.07c0,5.52-4.48,10-10,10c-2.76,0-5.26-1.12-7.07-2.93S94,54.76,94,52
				s1.12-5.26,2.93-7.07S101.24,42,104,42S109.26,43.12,111.07,44.93z" id="id_118"></path>
			<path d="M81.07,94.93C82.88,96.74,84,99.24,84,102c0,5.52-4.48,10-10,10c-2.76,0-5.26-1.12-7.07-2.93S64,104.76,64,102
				s1.12-5.26,2.93-7.07S71.24,92,74,92S79.26,93.12,81.07,94.93z" id="id_119"></path>
			<path d="M71.07,174.93c1.81,1.81,2.93,4.31,2.93,7.07c0,5.52-4.48,10-10,10c-2.76,0-5.26-1.12-7.07-2.93S54,184.76,54,182
				s1.12-5.26,2.93-7.07S61.24,172,64,172S69.26,173.12,71.07,174.93z" id="id_120"></path>
			<path d="M249,362c-13.785,0-25-11.215-25-25s11.215-25,25-25s25,11.215,25,25S262.785,362,249,362z M249,332
				c-2.757,0-5,2.243-5,5s2.243,5,5,5s5-2.243,5-5S251.757,332,249,332z" id="id_121"></path>
			<path d="M354,402c-16.542,0-30-13.458-30-30s13.458-30,30-30s30,13.458,30,30S370.542,402,354,402z M354,362
				c-5.514,0-10,4.486-10,10s4.486,10,10,10s10-4.486,10-10S359.514,362,354,362z" id="id_122"></path>
			<path d="M349,272c-19.299,0-35-15.701-35-35s15.701-35,35-35s35,15.701,35,35S368.299,272,349,272z M349,222
				c-8.271,0-15,6.729-15,15s6.729,15,15,15s15-6.729,15-15S357.271,222,349,222z" id="id_123"></path>
			<path d="M194,262c-16.542,0-30-13.458-30-30s13.458-30,30-30s30,13.458,30,30S210.542,262,194,262z M194,222
				c-5.514,0-10,4.486-10,10s4.486,10,10,10s10-4.486,10-10S199.514,222,194,222z" id="id_124"></path>
			<path d="M260,478c-50.122,0-97.336-16.423-136.541-47.493c-4.329-3.43-5.057-9.72-1.626-14.048
				c3.432-4.33,9.722-5.057,14.048-1.626C171.515,443.073,214.435,458,260,458c76.668,0,147.556-44.738,180.595-113.977
				c2.379-4.986,8.351-7.095,13.332-4.719c4.984,2.379,7.097,8.348,4.719,13.332c-17.642,36.97-45.209,68.256-79.722,90.475
				C343.473,465.936,302.35,478,260,478z" id="id_125"></path>
			<path d="M77.549,372.021c-3.473,0-6.847-1.811-8.692-5.042C49.979,333.932,40,296.247,40,258c0-5.732,0.222-11.485,0.66-17.098
				c0.378-4.849,4.191-8.723,9.034-9.178C80.654,228.815,104,203.139,104,172l-0.025-0.713c-0.14-4.865,3.244-9.125,8.014-10.089
				c12.588-2.544,23.255-11.1,28.535-22.887c1.378-3.077,4.214-5.252,7.544-5.786c3.33-0.532,6.704,0.647,8.974,3.139
				C166.5,146.046,179.971,152,194,152c24.639,0,45.389-17.624,49.34-41.906c0.71-4.365,4.204-7.746,8.59-8.312
				c8.301-1.072,15.631-6.479,19.131-14.111c1.748-3.815,5.695-6.124,9.876-5.801C282.039,81.958,283.041,82,284,82
				c16.6,0,31.228-9.996,37.265-25.466c1.967-5.038,7.58-7.601,12.676-5.783c12.659,4.516,25.013,10.266,36.717,17.089
				c4.771,2.782,6.384,8.905,3.602,13.676c-2.78,4.771-8.901,6.383-13.676,3.603c-8.06-4.7-16.456-8.837-25.053-12.351
				c-10.371,17.49-28.858,28.558-49.61,29.202c-5.732,8.638-14.395,15.09-24.293,18.108c-3.624,13.553-11.303,25.816-22.062,35.054
				C226.897,166.01,210.715,172,194,172c-15.22,0-29.97-5.003-41.999-14.017c-7.147,9.522-17,16.761-28.277,20.689
				c-1.462,17.598-8.683,34.198-20.702,47.325c-11.469,12.526-26.458,20.994-42.878,24.36C60.048,252.897,60,255.45,60,258
				c0,34.773,9.068,69.028,26.223,99.06c2.739,4.795,1.073,10.903-3.723,13.644C80.936,371.597,79.23,372.021,77.549,372.021z" id="id_126"></path>
			<path d="M467.231,302.172c-0.536,0-1.08-0.044-1.627-0.134c-5.45-0.892-9.146-6.033-8.253-11.483
				C459.108,279.816,460,268.864,460,258c0-46.347-16.227-91.526-45.691-127.213c-3.517-4.259-2.915-10.562,1.344-14.078
				c4.262-3.516,10.563-2.913,14.078,1.345C462.147,157.316,480,207.017,480,258c0,11.943-0.979,23.983-2.911,35.785
				C476.286,298.688,472.044,302.172,467.231,302.172z" id="id_127"></path>
			<path d="M129.669,432.67c-2.195,0-4.391-0.72-6.213-2.164c-22.217-17.618-40.587-38.991-54.6-63.527
				c-2.35-4.115-1.489-9.314,2.062-12.452C80.06,346.448,91.808,342,104,342c27.57,0,50,22.43,50,50
				c0,14.827-6.527,28.8-17.908,38.335C134.237,431.89,131.954,432.67,129.669,432.67z M90.986,364.975
				c10.403,16.426,23.065,31.155,37.782,43.951C132.147,403.99,134,398.116,134,392c0-16.542-13.458-30-30-30
				C99.456,362,95.014,363.031,90.986,364.975z" id="id_128"></path>
			<path d="M449.62,358.33c-1.66,0-3.311-0.413-4.797-1.226C431.979,350.083,424,336.632,424,322
				c0-23.454,20.345-42.264,44.256-39.776c2.738,0.285,5.238,1.688,6.91,3.875c1.672,2.188,2.367,4.969,1.923,7.687
				c-3.343,20.42-9.549,40.222-18.444,58.854c-1.184,2.479-3.336,4.362-5.95,5.207C451.691,358.17,450.654,358.33,449.62,358.33z
				 M454.588,304.356C448.293,307.729,444,314.372,444,322c0,3.231,0.778,6.348,2.201,9.122
				C449.624,322.414,452.426,313.472,454.588,304.356z" id="id_129"></path>
			<path d="M384,162c-27.57,0-50-22.43-50-50c0-18.741,10.352-35.753,27.016-44.397c3.041-1.577,6.679-1.488,9.641,0.237
				c22.532,13.134,42.407,30.028,59.074,50.212c2.18,2.64,2.857,6.212,1.797,9.467C424.803,148.144,405.703,162,384,162z
				 M365.723,88.217C358.387,93.841,354,102.556,354,112c0,16.542,13.458,30,30,30c11.217,0,21.272-6.166,26.423-15.781
				C397.412,111.375,382.416,98.625,365.723,88.217z" id="id_130"></path>
		</g>
	</g>
</g>
<g id="Layer_1">
</g>
</svg>