<svg xmlns="http://www.w3.org/2000/svg" viewBox="0 0 48 48"><title>Stair</title><g id="Stair"><path d="M42,15H35V5.044A3.947,3.947,0,0,1,35.576,5H43a1,1,0,0,0,0-2H35.576a5.967,5.967,0,0,0-3.44,1.084L4.427,23.48a1,1,0,1,0,1.146,1.639L13,19.921V35H6a2,2,0,0,0-2,2v6a2,2,0,0,0,2,2H42a2,2,0,0,0,2-2V17A2,2,0,0,0,42,15ZM33,5.921V22H25V11.521Zm-10,7V29H15V18.521ZM42,43H6V37h7a2,2,0,0,0,2-2V31h8a2,2,0,0,0,2-2V24h8a2,2,0,0,0,2-2V17h7V35H21a1,1,0,0,0,0,2H42Z" id="id_101" style="fill: rgb(255, 255, 255);"></path></g></svg>